<?xml version="1.0" encoding="UTF-8" standalone="no"?>
<svg
   xmlns:dc="http://purl.org/dc/elements/1.1/"
   xmlns:cc="http://creativecommons.org/ns#"
   xmlns:rdf="http://www.w3.org/1999/02/22-rdf-syntax-ns#"
   xmlns:svg="http://www.w3.org/2000/svg"
   xmlns="http://www.w3.org/2000/svg"
   xmlns:sodipodi="http://sodipodi.sourceforge.net/DTD/sodipodi-0.dtd"
   xmlns:inkscape="http://www.inkscape.org/namespaces/inkscape"
   viewBox="0 0 578.89 885.57"
   version="1.1"
   id="svg1242"
   sodipodi:docname="SYSTOPIA_OSmosis.svg"
   inkscape:export-filename="/Users/margo/UBC/systopia-web/assets/logos/SYSTOPIA_OSmosis.png"
   inkscape:export-xdpi="96"
   inkscape:export-ydpi="96"
   inkscape:version="1.0.2 (e86c8708, 2021-01-15)">
  <metadata
     id="metadata1246">
    <rdf:RDF>
      <cc:Work
         rdf:about="">
        <dc:format>image/svg+xml</dc:format>
        <dc:type
           rdf:resource="http://purl.org/dc/dcmitype/StillImage" />
      </cc:Work>
    </rdf:RDF>
  </metadata>
  <sodipodi:namedview
     pagecolor="#ffffff"
     bordercolor="#666666"
     borderopacity="1"
     objecttolerance="10"
     gridtolerance="10"
     guidetolerance="10"
     inkscape:pageopacity="0"
     inkscape:pageshadow="2"
     inkscape:window-width="1174"
     inkscape:window-height="905"
     id="namedview1244"
     showgrid="false"
     inkscape:zoom="0.83449077"
     inkscape:cx="289.44501"
     inkscape:cy="442.785"
     inkscape:window-x="491"
     inkscape:window-y="102"
     inkscape:window-maximized="0"
     inkscape:current-layer="svg1242" />
  <defs
     id="defs1204">
    <style
       id="style1202">.a{fill:#06c1fc;}.b{fill:#b7fefa;}.c{fill:none;stroke:#b7fefa;stroke-miterlimit:10;stroke-width:5px;}.d{fill:#2065fc;}.e{fill:#3431a3;}</style>
  </defs>
  <path
     class="a"
     d="M -1.1983356,-11.983356 V 629.14664 c 0,134.45 129.5899956,243.44 289.4399956,243.44 159.85,0 289.45,-109 289.45,-243.44 V -11.983356 Z"
     id="path1206" />
  <polygon
     class="b"
     points="408.56,0.01 314.88,173.93 319.47,175.94 414.24,0 "
     id="polygon1208"
     transform="translate(-49.13176,99.866848)" />
  <polygon
     class="b"
     points="341.16,199.86 335.6,197.36 578.89,50.42 578.89,56.27 "
     id="polygon1210"
     transform="matrix(1.0591065,0,0,1.0240565,-146.06638,77.87722)" />
  <polygon
     class="b"
     points="578.89,200.52 578.88,195.49 342.99,220.63 349.54,224.95 "
     id="polygon1212"
     transform="translate(-54.930002,8.37)" />
  <polygon
     class="b"
     points="481.19,291.79 486.54,288.22 578.89,315.74 578.89,320.96 "
     id="polygon1214"
     transform="translate(-45.536753,-26.363383)" />
  <rect
     class="b"
     x="285.57"
     y="291.79"
     width="5"
     height="24.07"
     id="rect1216" />
  <polygon
     class="b"
     points="237.28 299.69 241.28 302.7 255.74 281.31 251.19 279.12 237.28 299.69"
     id="polygon1218" />
  <polygon
     class="b"
     points="229.8,246.54 0,315.74 0,320.96 231.43,251.27 "
     id="polygon1220"
     transform="translate(69.249998,-20.74)" />
  <polygon
     class="b"
     points="227.57,224.9 0,200.05 0,195.02 229.64,220.11 "
     id="polygon1222"
     transform="translate(71.039998,10.42)" />
  <polygon
     class="b"
     points="0,50.17 242.92,198.5 240.81,203.06 0,56.03 "
     id="polygon1224"
     transform="translate(124.33878,78.111707)" />
  <polyline
     class="b"
     points="164.53 0 256.26 174.04 260.67 171.64 260.62 171.57 170.19 0.01"
     id="polyline1226"
     transform="matrix(1.0997159,0,0,0.99572033,32.725505,102.60336)" />
  <polygon
     class="b"
     points="285.95,170.37 286.95,0 291.94,0.01 290.95,170.37 "
     id="polygon1228"
     transform="matrix(1,0,0,0.43730206,0,95.866848)" />
  <line
     class="c"
     x1="288.06"
     y1="229"
     x2="288.06"
     y2="405.82"
     id="line1230" />
  <circle
     class="b"
     cx="288.06"
     cy="229"
     r="63.63"
     id="circle1232" />
  <path
     class="d"
     d="M387.43,186.33,272.55,323.73,153.17,242.64,0,391.67V641.26C0,775.71,129.59,884.7,289.44,884.7s289.45-109,289.45-243.44V360.56Z"
     transform="translate(0 -0.13)"
     id="path1234" />
  <path
     style="fill:none;stroke:#b7fefa;stroke-width:5;stroke-linecap:butt;stroke-linejoin:miter;stroke-miterlimit:4;stroke-dasharray:none;stroke-opacity:1"
     d="m 69.7,325.67 c -13.370976,-103.8822 5.261656,-141.17942 49.55317,-188.87464 25.15839,-27.09176 68.63722,-28.84751 104.91073,-35.99877 22.91276,-4.517208 46.5868,-4.042072 69.94049,-4.114151 19.56915,-0.0604 39.24697,0.367923 58.62659,3.08561 34.83879,4.885591 72.70484,5.527361 102.85365,23.656341 29.16049,17.53468 53.83352,45.7039 66.85488,77.14024 14.73198,35.56616 8.22829,115.1961 8.22829,115.1961 h 1.02854"
     id="path1248"
     sodipodi:nodetypes="csssssscc" />
  <path
     class="e"
     d="M510.58,298.41,491,287.13l-3.38,6.19L450.5,277.56l-15.77,33.22L418.4,284.31l-22,54.63L379,288.54l-5.63-6.48-24.22,29.28-2.81-45.61-30.41,19.15L301.27,295l-6.06,1.62-22.66,27.1-23.73-16.12L220.18,296.7l-7.32,20.56-22.53-29-7.88,40.54-3.94,9-24.21-27-22,22L98,346.26l7.32-40L67.7,325.8,0,391.67V641.26C0,775.71,129.59,884.7,289.44,884.7s289.45-109,289.45-243.44V360.56Z"
     transform="translate(0 -0.13)"
     id="path1236" />
  <path
     class="d"
     d="M482.07,464.48c-45.82,0-84.77-18.64-99.06-44.62-14.29,26-53.24,44.62-99.06,44.62-45.37,0-84-18.28-98.63-43.86-14.63,25.58-53.27,43.86-98.64,43.86-36,0-67.79-11.52-86.68-29.06V642.26C0,776.71,129.59,885.7,289.44,885.7s289.45-109,289.45-243.44V423.59C563.05,447.6,525.67,464.48,482.07,464.48Z"
     transform="translate(0 -0.13)"
     id="path1238" />
  <path
     class="b"
     d="M462.42,463.3C425.37,458.84,395.21,442,383,419.86c-14.29,26-53.24,44.62-99.06,44.62-45.37,0-84-18.28-98.63-43.86-12,21.07-40.38,37.17-75.34,42.2C66.49,526.5,46.9,594.19,46.9,594.19l93.2-67.3L82.38,667.11,194.44,562.37,150.8,751.58,255.54,579.83,287.07,809,320.3,580.67,422.5,751.58,381.39,562.65l111.5,107.27L436.58,528.86l92.63,69S507.87,528.29,462.42,463.3Z"
     transform="translate(0 -0.13)"
     id="path1240" />
  <ellipse
     style="fill:#b7fefa;fill-opacity:1;stroke:#b7fefa;stroke-width:1.31997;stroke-miterlimit:4;stroke-dasharray:none;stroke-opacity:1"
     id="path2081"
     cx="156.98196"
     cy="95.267685"
     rx="4.0383506"
     ry="3.4391825" />
  <ellipse
     style="fill:#b7fefa;fill-opacity:1;stroke:#b7fefa;stroke-width:1.31997;stroke-miterlimit:4;stroke-dasharray:none;stroke-opacity:1"
     id="path2081-2"
     cx="100.66019"
     cy="112.64354"
     rx="4.0383506"
     ry="3.4391825" />
  <ellipse
     style="fill:#b7fefa;fill-opacity:1;stroke:#b7fefa;stroke-width:1.31997;stroke-miterlimit:4;stroke-dasharray:none;stroke-opacity:1"
     id="path2081-1"
     cx="251.65047"
     cy="70.701797"
     rx="4.0383506"
     ry="3.4391825" />
  <ellipse
     style="fill:#b7fefa;fill-opacity:1;stroke:#b7fefa;stroke-width:1.31997;stroke-miterlimit:4;stroke-dasharray:none;stroke-opacity:1"
     id="path2081-4"
     cx="228.8821"
     cy="86.280159"
     rx="4.0383506"
     ry="3.4391825" />
  <ellipse
     style="fill:#b7fefa;fill-opacity:1;stroke:#b7fefa;stroke-width:1.31997;stroke-miterlimit:4;stroke-dasharray:none;stroke-opacity:1"
     id="path2081-43"
     cx="289.99722"
     cy="73.098473"
     rx="4.0383506"
     ry="3.4391825" />
  <ellipse
     style="fill:#b7fefa;fill-opacity:1;stroke:#b7fefa;stroke-width:1.31997;stroke-miterlimit:4;stroke-dasharray:none;stroke-opacity:1"
     id="path2081-13"
     cx="408.63245"
     cy="92.271843"
     rx="4.0383506"
     ry="3.4391825" />
  <ellipse
     style="fill:#b7fefa;fill-opacity:1;stroke:#b7fefa;stroke-width:1.31997;stroke-miterlimit:4;stroke-dasharray:none;stroke-opacity:1"
     id="path2081-9"
     cx="345.12067"
     cy="87.4785"
     rx="4.0383506"
     ry="3.4391825" />
  <ellipse
     style="fill:#b7fefa;fill-opacity:1;stroke:#b7fefa;stroke-width:1.31997;stroke-miterlimit:4;stroke-dasharray:none;stroke-opacity:1"
     id="path2081-8"
     cx="44.338421"
     cy="221.69209"
     rx="4.0383506"
     ry="3.4391825" />
  <ellipse
     style="fill:#b7fefa;fill-opacity:1;stroke:#b7fefa;stroke-width:1.31997;stroke-miterlimit:4;stroke-dasharray:none;stroke-opacity:1"
     id="path2081-7"
     cx="153.38696"
     cy="43.140083"
     rx="4.0383506"
     ry="3.4391825" />
  <ellipse
     style="fill:#b7fefa;fill-opacity:1;stroke:#b7fefa;stroke-width:2.31518;stroke-miterlimit:4;stroke-dasharray:none;stroke-opacity:1"
     id="path2081-98"
     cx="97.66436"
     cy="58.718449"
     rx="6.5365834"
     ry="6.5365829" />
  <ellipse
     style="fill:#b7fefa;fill-opacity:1;stroke:#b7fefa;stroke-width:1.31997;stroke-miterlimit:4;stroke-dasharray:none;stroke-opacity:1"
     id="path2081-48"
     cx="184.54369"
     cy="64.710121"
     rx="4.0383506"
     ry="3.4391825" />
  <ellipse
     style="fill:#b7fefa;fill-opacity:1;stroke:#b7fefa;stroke-width:1.31997;stroke-miterlimit:4;stroke-dasharray:none;stroke-opacity:1"
     id="path2081-21"
     cx="21.570047"
     cy="307.97226"
     rx="4.0383506"
     ry="3.4391825" />
  <ellipse
     style="fill:#b7fefa;fill-opacity:1;stroke:#b7fefa;stroke-width:1.31997;stroke-miterlimit:4;stroke-dasharray:none;stroke-opacity:1"
     id="path2081-18"
     cx="541.64771"
     cy="254.04715"
     rx="4.0383506"
     ry="3.4391825" />
  <ellipse
     style="fill:#b7fefa;fill-opacity:1;stroke:#b7fefa;stroke-width:1.31997;stroke-miterlimit:4;stroke-dasharray:none;stroke-opacity:1"
     id="path2081-0"
     cx="535.65601"
     cy="176.15533"
     rx="4.0383506"
     ry="3.4391825" />
  <ellipse
     style="fill:#b7fefa;fill-opacity:1;stroke:#b7fefa;stroke-width:1.31997;stroke-miterlimit:4;stroke-dasharray:none;stroke-opacity:1"
     id="path2081-74"
     cx="494.9126"
     cy="106.65187"
     rx="4.0383506"
     ry="3.4391825" />
  <ellipse
     style="fill:#b7fefa;fill-opacity:1;stroke:#b7fefa;stroke-width:1.31997;stroke-miterlimit:4;stroke-dasharray:none;stroke-opacity:1"
     id="path2081-16"
     cx="44.338409"
     cy="149.79195"
     rx="4.0383506"
     ry="3.4391825" />
  <ellipse
     style="fill:#b7fefa;fill-opacity:1;stroke:#b7fefa;stroke-width:2.31518;stroke-miterlimit:4;stroke-dasharray:none;stroke-opacity:1"
     id="path2081-98-7"
     cx="231.27876"
     cy="50.330093"
     rx="6.5365834"
     ry="6.5365829" />
  <ellipse
     style="fill:#b7fefa;fill-opacity:1;stroke:#b7fefa;stroke-width:2.31518;stroke-miterlimit:4;stroke-dasharray:none;stroke-opacity:1"
     id="path2081-98-73"
     cx="339.12897"
     cy="44.338417"
     rx="6.5365834"
     ry="6.5365829" />
  <ellipse
     style="fill:#b7fefa;fill-opacity:1;stroke:#b7fefa;stroke-width:2.31518;stroke-miterlimit:4;stroke-dasharray:none;stroke-opacity:1"
     id="path2081-98-2"
     cx="421.81412"
     cy="29.958391"
     rx="6.5365834"
     ry="6.5365829" />
  <ellipse
     style="fill:#b7fefa;fill-opacity:1;stroke:#b7fefa;stroke-width:2.31518;stroke-miterlimit:4;stroke-dasharray:none;stroke-opacity:1"
     id="path2081-98-0"
     cx="523.67267"
     cy="123.42857"
     rx="6.5365834"
     ry="6.5365829" />
  <ellipse
     style="fill:#b7fefa;fill-opacity:1;stroke:#b7fefa;stroke-width:2.31518;stroke-miterlimit:4;stroke-dasharray:none;stroke-opacity:1"
     id="path2081-98-77"
     cx="14.380026"
     cy="182.147"
     rx="6.5365834"
     ry="6.5365829" />
  <ellipse
     style="fill:#b7fefa;fill-opacity:1;stroke:#b7fefa;stroke-width:2.31518;stroke-miterlimit:4;stroke-dasharray:none;stroke-opacity:1"
     id="path2081-98-4"
     cx="460.16089"
     cy="75.495148"
     rx="6.5365834"
     ry="6.5365829" />
  <ellipse
     style="fill:#b7fefa;fill-opacity:1;stroke:#b7fefa;stroke-width:4.02675;stroke-miterlimit:4;stroke-dasharray:none;stroke-opacity:1"
     id="path2081-98-47"
     cx="38.346737"
     cy="34.152569"
     rx="11.672478"
     ry="11.073311" />
  <ellipse
     style="fill:#b7fefa;fill-opacity:1;stroke:#b7fefa;stroke-width:2.31518;stroke-miterlimit:4;stroke-dasharray:none;stroke-opacity:1"
     id="path2081-98-9"
     cx="165.37032"
     cy="11.983356"
     rx="6.5365834"
     ry="6.5365829" />
  <ellipse
     style="fill:#b7fefa;fill-opacity:1;stroke:#b7fefa;stroke-width:4.02675;stroke-miterlimit:4;stroke-dasharray:none;stroke-opacity:1"
     id="path2081-98-47-6"
     cx="517.68097"
     cy="15.578362"
     rx="11.672478"
     ry="11.073311" />
  <ellipse
     style="fill:#b7fefa;fill-opacity:1;stroke:#b7fefa;stroke-width:4.02675;stroke-miterlimit:4;stroke-dasharray:none;stroke-opacity:1"
     id="path2081-98-47-0"
     cx="378.67404"
     cy="62.31345"
     rx="11.672478"
     ry="11.073311" />
  <ellipse
     style="fill:#b7fefa;fill-opacity:1;stroke:#b7fefa;stroke-width:4.02675;stroke-miterlimit:4;stroke-dasharray:none;stroke-opacity:1"
     id="path2081-98-47-4"
     cx="276.81552"
     cy="4.7933426"
     rx="11.672478"
     ry="11.073311" />
</svg>
