<svg xmlns="http://www.w3.org/2000/svg" viewBox="0 0 578.89 885.57"><defs><style>.a{fill:#06c1fc;}.b{fill:#b7fefa;}.c{fill:none;stroke:#b7fefa;stroke-miterlimit:10;stroke-width:5px;}.d{fill:#2065fc;}.e{fill:#3431a3;}</style></defs><path class="a" d="M0,.13V641.26C0,775.71,129.59,884.7,289.44,884.7s289.45-109,289.45-243.44V.13Z" transform="translate(0 -0.13)"/><polygon class="b" points="314.88 173.93 319.47 175.94 414.24 0 408.56 0.01 314.88 173.93"/><polygon class="b" points="341.16 199.86 335.6 197.36 578.89 50.42 578.89 56.27 341.16 199.86"/><polygon class="b" points="349.54 224.95 578.89 200.52 578.88 195.49 342.99 220.63 349.54 224.95"/><polygon class="b" points="578.89 320.96 481.19 291.79 486.54 288.22 578.89 315.74 578.89 320.96"/><rect class="b" x="285.57" y="291.79" width="5" height="24.07"/><polygon class="b" points="237.28 299.69 241.28 302.7 255.74 281.31 251.19 279.12 237.28 299.69"/><polygon class="b" points="0 320.96 231.43 251.27 229.8 246.54 0 315.74 0 320.96"/><polygon class="b" points="227.57 224.9 0 200.05 0 195.02 229.64 220.11 227.57 224.9"/><polygon class="b" points="240.81 203.06 0 56.03 0 50.17 242.92 198.5 240.81 203.06"/><polyline class="b" points="164.53 0 256.26 174.04 260.67 171.64 260.62 171.57 170.19 0.01"/><polygon class="b" points="290.95 170.37 285.95 170.37 286.95 0 291.94 0.01 290.95 170.37"/><line class="c" x1="288.06" y1="229" x2="288.06" y2="405.82"/><circle class="b" cx="288.06" cy="229" r="63.63"/><path class="d" d="M387.43,186.33,272.55,323.73,153.17,242.64,0,391.67V641.26C0,775.71,129.59,884.7,289.44,884.7s289.45-109,289.45-243.44V360.56Z" transform="translate(0 -0.13)"/><path class="e" d="M510.58,298.41,491,287.13l-3.38,6.19L450.5,277.56l-15.77,33.22L418.4,284.31l-22,54.63L379,288.54l-5.63-6.48-24.22,29.28-2.81-45.61-30.41,19.15L301.27,295l-6.06,1.62-22.66,27.1-23.73-16.12L220.18,296.7l-7.32,20.56-22.53-29-7.88,40.54-3.94,9-24.21-27-22,22L98,346.26l7.32-40L67.7,325.8,0,391.67V641.26C0,775.71,129.59,884.7,289.44,884.7s289.45-109,289.45-243.44V360.56Z" transform="translate(0 -0.13)"/><path class="d" d="M482.07,464.48c-45.82,0-84.77-18.64-99.06-44.62-14.29,26-53.24,44.62-99.06,44.62-45.37,0-84-18.28-98.63-43.86-14.63,25.58-53.27,43.86-98.64,43.86-36,0-67.79-11.52-86.68-29.06V642.26C0,776.71,129.59,885.7,289.44,885.7s289.45-109,289.45-243.44V423.59C563.05,447.6,525.67,464.48,482.07,464.48Z" transform="translate(0 -0.13)"/><path class="b" d="M462.42,463.3C425.37,458.84,395.21,442,383,419.86c-14.29,26-53.24,44.62-99.06,44.62-45.37,0-84-18.28-98.63-43.86-12,21.07-40.38,37.17-75.34,42.2C66.49,526.5,46.9,594.19,46.9,594.19l93.2-67.3L82.38,667.11,194.44,562.37,150.8,751.58,255.54,579.83,287.07,809,320.3,580.67,422.5,751.58,381.39,562.65l111.5,107.27L436.58,528.86l92.63,69S507.87,528.29,462.42,463.3Z" transform="translate(0 -0.13)"/></svg>