<?xml version="1.0" encoding="UTF-8" standalone="no"?>
<svg
   viewBox="0 0 578.89 885.57"
   version="1.1"
   id="svg387"
   sodipodi:docname="SYSTOPIA_Logo.svg"
   inkscape:export-filename="/home/atrostan/Downloads/SYSTOPIA_Logo.png"
   inkscape:export-xdpi="360"
   inkscape:export-ydpi="360"
   inkscape:version="1.1 (1:1.1+202105261517+ce6663b3b7)"
   xmlns:inkscape="http://www.inkscape.org/namespaces/inkscape"
   xmlns:sodipodi="http://sodipodi.sourceforge.net/DTD/sodipodi-0.dtd"
   xmlns="http://www.w3.org/2000/svg"
   xmlns:svg="http://www.w3.org/2000/svg">
  <sodipodi:namedview
     id="namedview389"
     pagecolor="#ffffff"
     bordercolor="#666666"
     borderopacity="1.0"
     inkscape:pageshadow="2"
     inkscape:pageopacity="0.0"
     inkscape:pagecheckerboard="0"
     showgrid="false"
     inkscape:zoom="1.9716115"
     inkscape:cx="302.03719"
     inkscape:cy="218.34931"
     inkscape:window-width="2604"
     inkscape:window-height="2089"
     inkscape:window-x="74"
     inkscape:window-y="34"
     inkscape:window-maximized="0"
     inkscape:current-layer="layer1" />
  <defs
     id="defs349">
    <style
       id="style347">.a{fill:#06c1fc;}.b{fill:#b7fefa;}.c{fill:none;stroke:#b7fefa;stroke-miterlimit:10;stroke-width:5px;}.d{fill:#2065fc;}.e{fill:#3431a3;}</style>
  </defs>
  <path
     class="a"
     d="M0,.13V641.26C0,775.71,129.59,884.7,289.44,884.7s289.45-109,289.45-243.44V.13Z"
     id="path351"
     transform="translate(0 -0.13)" />
  <circle
     class="b"
     cx="42.595165"
     cy="305.10895"
     id="circle377-5-4-2-9-0"
     style="fill:#b7fefa;stroke-width:0.225"
     r="14.316751" />
  <circle
     class="b"
     cx="237.52515"
     cy="304.66089"
     id="circle377-5-4-2-9-4"
     style="fill:#b7fefa;stroke-width:0.225"
     r="14.316751" />
  <polygon
     class="b"
     points="314.88 173.93 319.47 175.94 414.24 0 408.56 0.01 314.88 173.93"
     id="polygon353" />
  <polygon
     class="b"
     points="341.16 199.86 335.6 197.36 578.89 50.42 578.89 56.27 341.16 199.86"
     id="polygon355" />
  <polygon
     class="b"
     points="349.54 224.95 578.89 200.52 578.88 195.49 342.99 220.63 349.54 224.95"
     id="polygon357" />
  <polygon
     class="b"
     points="578.89 320.96 481.19 291.79 486.54 288.22 578.89 315.74 578.89 320.96"
     id="polygon359" />
  <rect
     class="b"
     x="285.57"
     y="291.79"
     width="5"
     height="24.07"
     id="rect361" />
  <polygon
     class="b"
     points="237.28 299.69 241.28 302.7 255.74 281.31 251.19 279.12 237.28 299.69"
     id="polygon363" />
  <polygon
     class="b"
     points="0 320.96 231.43 251.27 229.8 246.54 0 315.74 0 320.96"
     id="polygon365" />
  <polygon
     class="b"
     points="227.57 224.9 0 200.05 0 195.02 229.64 220.11 227.57 224.9"
     id="polygon367" />
  <polygon
     class="b"
     points="240.81 203.06 0 56.03 0 50.17 242.92 198.5 240.81 203.06"
     id="polygon369" />
  <polyline
     class="b"
     points="164.53 0 256.26 174.04 260.67 171.64 260.62 171.57 170.19 0.01"
     id="polyline371" />
  <polygon
     class="b"
     points="290.95 170.37 285.95 170.37 286.95 0 291.94 0.01 290.95 170.37"
     id="polygon373" />
  <line
     class="c"
     x1="288.06"
     y1="229"
     x2="288.06"
     y2="405.82"
     id="line375" />
  <circle
     class="b"
     cx="288.06"
     cy="229"
     r="63.63"
     id="circle377" />
  <circle
     class="b"
     cx="95.956589"
     cy="111.54636"
     id="circle377-5"
     style="fill:#b7fefa;stroke-width:0.225"
     r="14.316751" />
  <circle
     class="b"
     cx="123.38"
     cy="212.81795"
     id="circle377-5-4"
     style="fill:#b7fefa;stroke-width:0.225"
     r="14.316751" />
  <circle
     class="b"
     cx="234.21794"
     cy="128.05814"
     id="circle377-5-4-2"
     style="fill:#b7fefa;stroke-width:0.225"
     r="14.316751" />
  <circle
     class="b"
     cx="289.06165"
     cy="56.977699"
     id="circle377-5-4-2-9"
     style="fill:#b7fefa;stroke-width:0.225"
     r="14.316751" />
  <circle
     class="b"
     cx="369.10333"
     cy="78.646523"
     id="circle377-5-4-2-9-1"
     style="fill:#b7fefa;stroke-width:0.225"
     r="14.316751" />
  <circle
     class="b"
     cx="373.19543"
     cy="176.58968"
     id="circle377-5-4-2-9-7"
     style="fill:#b7fefa;stroke-width:0.225"
     r="14.316751" />
  <circle
     class="b"
     cx="503.55441"
     cy="205.95912"
     id="circle377-5-4-2-9-5"
     style="fill:#b7fefa;stroke-width:0.225"
     r="14.316751" />
  <circle
     class="b"
     cx="518.33813"
     cy="302.59808"
     id="circle377-5-4-2-9-2"
     style="fill:#b7fefa;stroke-width:0.225"
     r="14.316751" />
  <path
     class="d"
     d="M387.43,186.33,272.55,323.73,153.17,242.64,0,391.67V641.26C0,775.71,129.59,884.7,289.44,884.7s289.45-109,289.45-243.44V360.56Z"
     id="path379"
     transform="translate(0 -0.13)" />
  <path
     class="e"
     d="M510.58,298.41,491,287.13l-3.38,6.19L450.5,277.56l-15.77,33.22L418.4,284.31l-22,54.63L379,288.54l-5.63-6.48-24.22,29.28-2.81-45.61-30.41,19.15L301.27,295l-6.06,1.62-22.66,27.1-23.73-16.12L220.18,296.7l-7.32,20.56-22.53-29-7.88,40.54-3.94,9-24.21-27-22,22L98,346.26l7.32-40L67.7,325.8,0,391.67V641.26C0,775.71,129.59,884.7,289.44,884.7s289.45-109,289.45-243.44V360.56Z"
     id="path381"
     transform="translate(0 -0.13)" />
  <path
     class="d"
     d="M482.07,464.48c-45.82,0-84.77-18.64-99.06-44.62-14.29,26-53.24,44.62-99.06,44.62-45.37,0-84-18.28-98.63-43.86-14.63,25.58-53.27,43.86-98.64,43.86-36,0-67.79-11.52-86.68-29.06V642.26C0,776.71,129.59,885.7,289.44,885.7s289.45-109,289.45-243.44V423.59C563.05,447.6,525.67,464.48,482.07,464.48Z"
     id="path383"
     transform="translate(0 -0.13)" />
  <path
     class="b"
     d="M462.42,463.3C425.37,458.84,395.21,442,383,419.86c-14.29,26-53.24,44.62-99.06,44.62-45.37,0-84-18.28-98.63-43.86-12,21.07-40.38,37.17-75.34,42.2C66.49,526.5,46.9,594.19,46.9,594.19l93.2-67.3L82.38,667.11,194.44,562.37,150.8,751.58,255.54,579.83,287.07,809,320.3,580.67,422.5,751.58,381.39,562.65l111.5,107.27L436.58,528.86l92.63,69S507.87,528.29,462.42,463.3Z"
     id="path385"
     transform="translate(0 -0.13)" />
  <path
     style="fill:#000000;fill-opacity:1;stroke:#b7fefa;stroke-width:5.3;stroke-linecap:butt;stroke-linejoin:miter;stroke-miterlimit:4;stroke-dasharray:none;stroke-opacity:1"
     d="m 98.30385,122.11509 22.38754,77.03184"
     id="path2762" />
  <g
     inkscape:groupmode="layer"
     id="layer2"
     inkscape:label="bottom" />
  <g
     inkscape:groupmode="layer"
     id="layer1"
     inkscape:label="top">
    <path
       style="fill:none;stroke:#b7fefa;stroke-width:5.42015;stroke-linecap:butt;stroke-linejoin:miter;stroke-miterlimit:4;stroke-dasharray:none;stroke-opacity:1"
       d="m 107.76761,108.86921 115.88947,15.01297"
       id="path35881"
       inkscape:export-filename="/home/atrostan/Downloads/path35893.png"
       inkscape:export-xdpi="360"
       inkscape:export-ydpi="360" />
    <path
       style="fill:none;stroke:#b7fefa;stroke-width:5.3;stroke-linecap:butt;stroke-linejoin:miter;stroke-opacity:1;stroke-miterlimit:4;stroke-dasharray:none"
       d="M 134.82331,204.65735 224.2014,138.00904"
       id="path35883"
       inkscape:export-filename="/home/atrostan/Downloads/path35893.png"
       inkscape:export-xdpi="360"
       inkscape:export-ydpi="360" />
    <path
       style="fill:none;stroke:#b7fefa;stroke-width:5.33994;stroke-linecap:butt;stroke-linejoin:miter;stroke-miterlimit:4;stroke-dasharray:none;stroke-opacity:1"
       d="M 361.44365,170.04073 247.53552,128.86026"
       id="path35885"
       inkscape:export-filename="/home/atrostan/Downloads/path35893.png"
       inkscape:export-xdpi="360"
       inkscape:export-ydpi="360" />
    <path
       style="fill:none;stroke:#b7fefa;stroke-width:5.44137;stroke-linecap:butt;stroke-linejoin:miter;stroke-miterlimit:4;stroke-dasharray:none;stroke-opacity:1"
       d="m 299.42621,61.95437 67.94372,102.81874"
       id="path35887"
       inkscape:export-filename="/home/atrostan/Downloads/path35893.png"
       inkscape:export-xdpi="360"
       inkscape:export-ydpi="360" />
    <path
       style="fill:none;stroke:#b7fefa;stroke-width:5.24249;stroke-linecap:butt;stroke-linejoin:miter;stroke-miterlimit:4;stroke-dasharray:none;stroke-opacity:1"
       d="m 372.9884,91.32616 1.0008,71.68193"
       id="path35889"
       inkscape:export-filename="/home/atrostan/Downloads/path35893.png"
       inkscape:export-xdpi="360"
       inkscape:export-ydpi="360" />
    <path
       style="fill:none;stroke:#b7fefa;stroke-width:5.40012;stroke-linecap:butt;stroke-linejoin:miter;stroke-miterlimit:4;stroke-dasharray:none;stroke-opacity:1"
       d="m 386.93951,178.38901 103.88643,23.14453"
       id="path35891"
       inkscape:export-filename="/home/atrostan/Downloads/path35893.png"
       inkscape:export-xdpi="360"
       inkscape:export-ydpi="360" />
    <path
       style="fill:none;stroke:#b7fefa;stroke-width:5.34604;stroke-linecap:butt;stroke-linejoin:miter;stroke-miterlimit:4;stroke-dasharray:none;stroke-opacity:1"
       d="M 512.18949,290.28641 379.00976,86.948215"
       id="path35893"
       inkscape:export-filename="/home/atrostan/Downloads/path35893.png"
       inkscape:export-xdpi="360"
       inkscape:export-ydpi="360" />
    <path
       style="fill:none;stroke:#b7fefa;stroke-width:5.3;stroke-linecap:butt;stroke-linejoin:miter;stroke-opacity:1;stroke-miterlimit:4;stroke-dasharray:none"
       d="m 505.73928,219.29041 10.05908,69.91979"
       id="path35895"
       inkscape:export-filename="/home/atrostan/Downloads/path35893.png"
       inkscape:export-xdpi="360"
       inkscape:export-ydpi="360" />
    <path
       style="fill:none;stroke:#b7fefa;stroke-width:5.4099;stroke-linecap:butt;stroke-linejoin:miter;stroke-miterlimit:4;stroke-dasharray:none;stroke-opacity:1"
       d="M 41.278282,292.20537 85.717029,117.33511"
       id="path35897"
       inkscape:export-filename="/home/atrostan/Downloads/path35893.png"
       inkscape:export-xdpi="360"
       inkscape:export-ydpi="360" />
    <path
       style="fill:none;stroke:#b7fefa;stroke-width:5.3;stroke-linecap:butt;stroke-linejoin:miter;stroke-opacity:1;stroke-miterlimit:4;stroke-dasharray:none"
       d="M 51.740026,295.67501 114.96822,221.56174"
       id="path36207"
       inkscape:export-filename="/home/atrostan/Downloads/path35893.png"
       inkscape:export-xdpi="360"
       inkscape:export-ydpi="360" />
  </g>
</svg>
